<svg width="32" height="27" viewBox="0 0 32 27" fill="none" xmlns="http://www.w3.org/2000/svg">
<g filter="url(#filter0_d_274_454)">
<path d="M5.50909 6.61757C5.50909 4.98046 6.83623 3.65332 8.47334 3.65332H24.0357C25.6728 3.65332 26.9999 4.98046 26.9999 6.61757V18.3824C26.9999 20.0196 25.6728 21.3467 24.0357 21.3467H8.47334C6.83623 21.3467 5.50909 20.0196 5.50909 18.3824L5.50909 6.61757Z" fill="#F5F5F5" stroke="#181717" stroke-width="1.23077" stroke-linecap="round" stroke-linejoin="round"/>
<path d="M6.65427 4.25073L14.8622 11.6211C15.6509 12.3294 16.8494 12.32 17.6269 11.5995L25.5573 4.25073" fill="#F5F5F5"/>
<path d="M6.65427 4.43408L14.8622 11.8045C15.6509 12.5127 16.8494 12.5034 17.6269 11.7828L25.5573 4.43408" stroke="#181717" stroke-width="1.23077" stroke-linecap="round" stroke-linejoin="round"/>
</g>
<defs>
<filter id="filter0_d_274_454" x="0.893707" y="0.0378418" width="30.7216" height="26.9243" filterUnits="userSpaceOnUse" color-interpolation-filters="sRGB">
<feFlood flood-opacity="0" result="BackgroundImageFix"/>
<feColorMatrix in="SourceAlpha" type="matrix" values="0 0 0 0 0 0 0 0 0 0 0 0 0 0 0 0 0 0 127 0" result="hardAlpha"/>
<feOffset dy="1"/>
<feGaussianBlur stdDeviation="2"/>
<feComposite in2="hardAlpha" operator="out"/>
<feColorMatrix type="matrix" values="0 0 0 0 0.0969792 0 0 0 0 0.127894 0 0 0 0 0.2375 0 0 0 0.08 0"/>
<feBlend mode="normal" in2="BackgroundImageFix" result="effect1_dropShadow_274_454"/>
<feBlend mode="normal" in="SourceGraphic" in2="effect1_dropShadow_274_454" result="shape"/>
</filter>
</defs>
</svg>
