<svg width="20" height="20" viewBox="0 0 20 20" fill="none" xmlns="http://www.w3.org/2000/svg">
<path d="M2.45107 11.6469L9.40368 18.1781C9.57786 18.3417 9.66495 18.4235 9.75965 18.465C9.91311 18.5322 10.0877 18.5322 10.2411 18.465C10.3358 18.4235 10.4229 18.3417 10.5971 18.1781L17.5497 11.6469C19.5059 9.80924 19.7434 6.78524 18.0982 4.66471L17.7889 4.26599C15.8207 1.72923 11.87 2.15466 10.4871 5.0523C10.2917 5.46161 9.70908 5.46161 9.51373 5.0523C8.13077 2.15466 4.18012 1.72923 2.21194 4.26599L1.90258 4.66472C0.257344 6.78525 0.494894 9.80924 2.45107 11.6469Z" stroke="#F5F5F5" stroke-width="1.5"/>
</svg>
